<svg xmlns="http://www.w3.org/2000/svg" viewBox="0 0 16 16"><defs><style>.a{fill:#73b9d4;}</style></defs><title>favicon_16px</title><path class="a" d="M13.5,16H2.5A2.5,2.5,0,0,1,0,13.5V2.5A2.5,2.5,0,0,1,2.5,0h11A2.5,2.5,0,0,1,16,2.5v11A2.5,2.5,0,0,1,13.5,16ZM11.28,4.4A6.92,6.92,0,0,1,12.47,5a2.26,2.26,0,0,0,.64-.64,1.67,1.67,0,0,0,.28-1,1.89,1.89,0,0,0-1.08-1.65,6,6,0,0,0-3-.64,7.49,7.49,0,0,0-2.61.45A6,6,0,0,0,4.52,2.9,6.26,6.26,0,0,0,3.09,5,7.66,7.66,0,0,0,2.57,8a8,8,0,0,0,.54,3.09A5.92,5.92,0,0,0,4.6,13.22a6,6,0,0,0,2.2,1.25,8.77,8.77,0,0,0,2.69.41,5.7,5.7,0,0,0,3-.61,1.75,1.75,0,0,0,1-1.49,2.22,2.22,0,0,0-.2-1,2.14,2.14,0,0,0-.57-.72,10,10,0,0,1-1.17.53,4.1,4.1,0,0,1-1.49.24,3.48,3.48,0,0,1-2.62-1A4,4,0,0,1,6.42,8,4.19,4.19,0,0,1,7.3,5.15a3.17,3.17,0,0,1,2.52-1A3.87,3.87,0,0,1,11.28,4.4Z"/></svg>